<svg width="52" height="49" viewBox="0 0 52 49" fill="none" xmlns="http://www.w3.org/2000/svg">
<g clip-path="url(#clip0_181_33)">
<path d="M41.554 23.5943C41.5286 23.9533 41.5182 24.2469 41.5182 24.3875C41.5182 24.7193 41.277 24.9963 40.9541 25.0658L40.0042 25.3462C39.9336 25.3669 39.8623 25.3772 39.7923 25.3772V25.3791H39.6413C39.3047 25.3791 39.0215 25.1575 38.9414 24.8576L38.1094 22.4203L38.1074 22.4143L38.1064 22.4146L37.9554 21.9554L36.5462 24.3897C36.4854 24.4945 36.401 24.5784 36.3024 24.6382L36.3034 24.6395L35.569 25.0874C35.2321 25.2927 34.7858 25.1969 34.5719 24.8729C34.5179 24.7909 34.484 24.7024 34.4691 24.6125L33.7549 20.756L32.6738 20.0195L30.137 19.5841C30.224 19.7165 30.3122 19.8474 30.3994 19.9766C30.8512 20.6471 31.2734 21.2734 31.4134 21.9188C31.639 22.9564 31.2363 23.8241 29.4398 24.4438C29.4915 24.4739 29.5426 24.5067 29.5934 24.544C30.2933 25.0589 30.4619 25.8182 28.9355 27.7354C28.5501 28.2196 28.2188 28.6475 27.9404 29.0193C27.7217 29.312 27.5176 29.5937 27.3298 29.8644L27.6732 32.267C27.7194 32.5907 27.6387 32.9056 27.4219 33.2089C27.2611 33.4339 27.0234 33.6477 26.7051 33.8483C26.4948 33.981 26.3151 34.1144 26.168 34.248C26.1097 34.3006 26.057 34.3532 26.0091 34.4052L26.167 35.0916C26.2425 35.4205 26.0615 35.7464 25.752 35.8756L25.7523 35.8763L25.4876 35.9871C25.4352 36.1843 25.3597 36.3777 25.2627 36.5674C25.1058 36.8722 24.8883 37.1702 24.6113 37.4607C24.3164 37.7709 23.9915 38.0056 23.6374 38.1646C23.2676 38.3308 22.8779 38.4138 22.4674 38.4138H21.1953C20.7962 38.4138 20.4723 38.1027 20.4723 37.7186C20.4723 37.4047 20.4326 37.0716 20.3542 36.7186C20.2728 36.3533 20.1488 35.962 19.9827 35.5445C19.7956 35.0737 19.6527 34.6477 19.5544 34.2665C19.4495 33.8602 19.3971 33.5084 19.3971 33.2104C19.3971 32.9444 19.4209 32.7062 19.4684 32.4955C19.5247 32.2442 19.6156 32.0307 19.7406 31.8545C19.7536 31.836 19.7682 31.7834 19.7848 31.6961C19.8102 31.5618 19.8232 31.3775 19.8232 31.1418C19.8232 30.9624 19.791 30.7737 19.7275 30.5759C19.6569 30.3568 19.5479 30.123 19.4014 29.876C19.2184 29.5677 19.0804 29.3188 18.9876 29.1301C18.8542 28.8594 18.7874 28.6421 18.7874 28.4809C18.7874 27.3463 18.3828 27.0962 17.821 27.0962C17.4834 27.0962 17.1035 27.1457 16.7087 27.1973C16.2168 27.2615 15.7048 27.3281 15.2018 27.3281C14.8226 27.3281 14.4482 27.1616 14.083 26.8311C13.8138 26.5876 13.5322 26.2345 13.2422 25.7747C12.9792 25.3581 12.7806 25.0216 12.6458 24.7681C12.4603 24.4188 12.3678 24.1512 12.3678 23.9721C12.3678 23.5142 12.3675 23.4751 12.3672 23.4385C12.348 21.5097 12.3304 19.6859 14.265 18.3418C15.0671 17.2454 15.7894 16.5342 16.6582 16.0816C17.5628 15.6102 18.5693 15.4453 19.9303 15.4453C20.3294 15.4453 20.6533 15.7567 20.6533 16.1405V17.1261L21.5205 17.4911L21.5329 17.4344C21.6156 17.0598 21.9987 16.8203 22.3883 16.8995L22.3913 16.9001V16.8995C22.6595 16.9552 22.9036 17.0213 23.1257 17.0989C23.3633 17.1821 23.5687 17.277 23.7435 17.3853C23.835 17.4423 23.9993 17.4926 24.1966 17.5258C24.4173 17.5628 24.654 17.5703 24.8538 17.5321C24.96 17.5117 25.0394 17.4876 25.0625 17.4613L25.0628 17.4595C25.0625 17.4595 25.0622 17.4595 25.0625 17.4588L25.0671 17.4366C25.0853 17.333 25.1009 17.2282 25.1143 17.1224L24.2559 17.1959C23.9473 17.2216 23.6673 17.0563 23.5426 16.8018L23.5413 16.8022C23.2581 16.2294 22.6598 15.9355 21.9089 15.567C21.1016 15.1708 20.151 14.7041 19.1273 13.767C15.6725 14.9454 14.5687 15.1076 14.292 14.3667C14.1292 13.9322 14.363 13.5845 14.6777 13.1162C14.9616 12.694 15.3656 12.0937 15.3656 11.5296C15.3656 11.2276 15.5664 10.9703 15.8467 10.8745L18.7549 9.59714H18.7542C18.4408 9.54392 18.0524 9.47757 17.7305 7.97296C17.6647 7.66403 17.8242 7.36104 18.1006 7.22144L18.1003 7.22081C18.3271 7.10594 18.5934 6.94913 18.8991 6.75006C19.209 6.54817 19.5798 6.289 20.012 5.97162L20.0394 5.95159C18.5609 6.17288 17.1393 6.56319 15.7764 7.12316L15.7767 7.1241C14.6393 7.59454 13.5791 8.14543 12.5977 8.77832C11.6146 9.41278 10.7038 10.133 9.86589 10.9415L9.86296 10.9443C9.02214 11.75 8.27311 12.6258 7.61361 13.571C6.95508 14.5144 6.38216 15.5339 5.8929 16.6278C5.8877 16.6391 5.88249 16.65 5.87695 16.661C5.40234 17.7302 5.04688 18.8389 4.80762 19.987C4.56641 21.146 4.44596 22.3429 4.44596 23.5771C4.44596 24.8113 4.56673 26.0085 4.80794 27.1676C4.82096 27.2299 4.83431 27.2925 4.84831 27.3554L8.19173 28.8925C8.44173 29.0077 8.59147 29.2434 8.60059 29.4926C8.63639 30.4115 8.38184 31.0911 8.12012 31.7881C7.92546 32.3065 7.72656 32.8367 7.69466 33.4608C7.69141 33.5269 7.67871 33.5901 7.65788 33.6499C8.30599 34.5695 9.03939 35.423 9.86003 36.2096L9.86296 36.2124C10.7005 37.0209 11.6117 37.7411 12.5947 38.3753C13.5758 39.0082 14.6361 39.5594 15.7738 40.0298C15.7855 40.0345 15.7969 40.0395 15.8083 40.0452C16.9196 40.4987 18.0729 40.8405 19.2669 41.0702C20.4723 41.3022 21.7171 41.418 23.0007 41.418C24.2839 41.418 25.529 41.3022 26.7341 41.0702C27.9408 40.838 29.1055 40.4912 30.2275 40.0308L30.2269 40.0298C31.3646 39.5594 32.4248 39.0082 33.4062 38.3753C34.389 37.7411 35.2998 37.0206 36.138 36.2121L36.1409 36.2096C36.9814 35.4043 37.7308 34.5282 38.39 33.5829C39.0485 32.6395 39.6214 31.62 40.1107 30.5261C40.1159 30.5148 40.1208 30.5039 40.1266 30.4929C40.5986 29.4243 40.9541 28.3157 41.193 27.1679C41.4323 26.0138 41.5531 24.8226 41.554 23.5943ZM15.2061 5.84892C17.6439 4.847 20.2445 4.34619 23 4.34619C24.377 4.34619 25.7161 4.47108 27.0156 4.72117C28.2992 4.96844 29.5469 5.33935 30.7575 5.8339C30.7705 5.83859 30.7839 5.8436 30.7969 5.84892C32.0046 6.34847 33.1419 6.94068 34.2074 7.62834C35.2702 8.31382 36.2536 9.09132 37.1566 9.96241L37.1595 9.96523C38.0654 10.8335 38.874 11.7791 39.5869 12.801C40.3014 13.8252 40.918 14.9191 41.4375 16.0804L41.4362 16.0807L41.4375 16.0829C41.9596 17.2579 42.3506 18.4692 42.6104 19.7156C42.8704 20.9651 43.0003 22.2528 43.0003 23.5771C43.0003 24.9014 42.8704 26.1891 42.6104 27.4386C42.3535 28.6731 41.9671 29.8729 41.4528 31.0369C41.4479 31.0494 41.443 31.0617 41.4375 31.0742C40.918 32.2354 40.3018 33.329 39.5869 34.3535C38.874 35.3755 38.0654 36.321 37.1595 37.1893L37.1566 37.1921C36.2539 38.0632 35.2702 38.8407 34.2074 39.5262C33.1423 40.2136 32.0046 40.8061 30.7969 41.3056L30.7966 41.3047L30.7939 41.3056C29.5719 41.8077 28.3122 42.1839 27.016 42.4334C25.7161 42.6835 24.3773 42.8084 23 42.8084C21.6227 42.8084 20.2835 42.6835 18.984 42.4334C17.7005 42.1864 16.4531 41.8155 15.2425 41.3206C15.2292 41.316 15.2161 41.3113 15.2031 41.3056C13.9954 40.8061 12.8581 40.2139 11.7923 39.5262C10.7298 38.8407 9.74609 38.0632 8.8431 37.1921L8.84017 37.1893C7.93457 36.3214 7.12598 35.3755 6.41309 34.3535C5.69824 33.3294 5.08203 32.2354 4.5625 31.0742L4.56348 31.0735L4.5625 31.0714C4.04036 29.8963 3.64909 28.6853 3.38965 27.4386C3.13021 26.1888 3 24.9014 3 23.5768C3 22.2525 3.13021 20.9648 3.3903 19.7153C3.64714 18.4811 4.0332 17.2814 4.54785 16.117C4.55273 16.1045 4.55762 16.0923 4.56315 16.0797C5.08268 14.9185 5.69857 13.8246 6.41374 12.8004C7.12663 11.7788 7.93522 10.8329 8.84082 9.9646L8.84375 9.96178C9.74674 9.0907 10.7305 8.3132 11.793 7.62772C12.8584 6.94036 13.9961 6.34785 15.2038 5.84829L15.2041 5.84923L15.2061 5.84892ZM6.15137 30.5461C6.30859 30.8961 6.48047 31.2426 6.66667 31.5837C6.69922 31.4955 6.73177 31.4075 6.76465 31.3205C6.93294 30.8726 7.09766 30.4335 7.14746 29.9467L5.63021 29.2494C5.7819 29.6822 5.9554 30.1142 6.15137 30.5436L6.15039 30.5439L6.15137 30.5461ZM31.2373 7.71254C30.5667 7.38827 29.8688 7.10156 29.1436 6.85366C26.459 7.44805 25.6826 7.09154 24.8216 6.69559C24.3838 6.49433 23.9167 6.2793 22.8861 6.2793H22.2695C22.2074 6.2793 22.0775 6.33001 21.8796 6.43173C21.6152 6.56789 21.2835 6.78167 20.8841 7.07464C20.457 7.38796 20.0638 7.66152 19.7035 7.89628C19.4935 8.03306 19.3014 8.15169 19.127 8.2531C19.4714 8.32947 19.7344 8.53668 19.9176 10.0857H19.9163C19.9495 10.3746 19.7897 10.6642 19.4997 10.7916L16.7673 11.9916C16.6341 12.7541 16.2025 13.3964 15.8831 13.8712C15.8766 13.8812 15.8691 13.8887 15.8613 13.894C16.2077 13.695 17.0417 13.0226 19.0254 12.3315C19.2949 12.2192 19.6201 12.2733 19.8343 12.4899C20.8079 13.469 21.7633 13.9376 22.5612 14.3294C23.3975 14.7398 24.0911 15.0803 24.5859 15.778L25.7529 15.6779C25.7949 15.6707 25.8385 15.6666 25.8828 15.6666C26.2819 15.6666 26.6058 15.9777 26.6058 16.3615C26.6058 16.5777 26.5954 16.8003 26.5749 17.0266C26.5553 17.235 26.5264 17.451 26.4867 17.6729C26.4854 17.6811 26.4841 17.6895 26.4824 17.6977C26.4482 17.8873 26.377 18.0567 26.2764 18.2069C26.0195 18.591 25.6025 18.8051 25.1331 18.8949C24.7523 18.9678 24.3268 18.9581 23.9456 18.8943C23.5684 18.831 23.2126 18.708 22.9616 18.5528C22.9089 18.5202 22.848 18.4889 22.779 18.4592L22.7454 18.611H22.7448C22.7347 18.6558 22.7201 18.7005 22.7002 18.744C22.541 19.0949 22.1165 19.2552 21.7513 19.1024L19.6904 18.2348C19.4079 18.1406 19.2048 17.882 19.2048 17.5781V16.8569C18.4453 16.9039 17.8516 17.0372 17.3389 17.3045C16.6709 17.6523 16.0827 18.2523 15.3916 19.2079C15.3405 19.2871 15.2715 19.3575 15.1865 19.4132C13.7744 20.3454 13.7891 21.8431 13.8044 23.4288C13.8076 23.7496 13.8109 23.8763 13.8109 23.9734C13.8109 24.0059 13.849 23.9956 13.9255 24.1393C14.0462 24.3668 14.2279 24.6739 14.471 25.0589C14.6891 25.4044 14.8896 25.6595 15.0693 25.822C15.1549 25.8996 15.1989 25.9387 15.1999 25.9387C15.6357 25.9387 16.0843 25.8802 16.515 25.8242C16.9733 25.7647 17.4144 25.7071 17.819 25.7071C19.222 25.7071 20.2311 26.2076 20.2311 28.4816C20.2311 28.5235 20.251 28.459 20.2904 28.5392C20.3704 28.7019 20.4915 28.9198 20.6533 29.1927C20.8506 29.5254 21.0013 29.8513 21.1038 30.1696C21.2126 30.5067 21.2676 30.8316 21.2676 31.1424C21.2676 31.446 21.2448 31.714 21.2008 31.9462C21.1468 32.2292 21.0563 32.4595 20.9303 32.6367C20.9118 32.663 20.8945 32.7118 20.8783 32.7835C20.8535 32.894 20.8411 33.0364 20.8411 33.2107C20.8411 33.4045 20.8786 33.6461 20.9531 33.9353C21.0345 34.2499 21.1602 34.6214 21.3307 35.0506C21.5208 35.5291 21.666 35.9893 21.7643 36.4309C21.8092 36.6331 21.8447 36.8309 21.8695 37.0237H22.4658C22.6709 37.0237 22.8577 36.9862 23.0257 36.9107C23.209 36.8281 23.3835 36.7004 23.5482 36.527C23.7282 36.3376 23.8682 36.1464 23.9674 35.9536C24.0544 35.7855 24.1077 35.6187 24.1266 35.4534C24.1445 35.2033 24.3027 34.9711 24.5579 34.864L24.6312 34.833L24.5299 34.3936C24.4902 34.2208 24.5192 34.0336 24.626 33.8724C24.7738 33.6493 24.9583 33.4373 25.1781 33.238C25.3916 33.0436 25.6374 32.8595 25.9131 32.6858C26.0752 32.5838 26.181 32.4958 26.2344 32.421C26.2347 32.4207 26.235 32.421 26.2354 32.4216L26.2396 32.4245L25.8688 29.8322C25.8337 29.6603 25.8652 29.476 25.9727 29.3179C26.1813 29.0115 26.4469 28.6418 26.7699 28.2099C27.083 27.7917 27.4229 27.3523 27.7878 26.8937C28.5895 25.8861 28.7406 25.6633 28.7168 25.6461C28.6673 25.6094 28.5472 25.5619 28.4212 25.5124C27.9287 25.3187 27.3864 25.1046 27.1309 24.4053C27.1169 24.3706 27.1058 24.334 27.0973 24.2964C27.0163 23.9217 27.2666 23.5543 27.6566 23.4766C29.6169 23.0826 30.1012 22.6644 30.0003 22.2008C29.915 21.8077 29.5645 21.2878 29.1895 20.7313C28.8158 20.177 28.4209 19.5907 28.1553 18.9503C28.0924 18.8245 28.0684 18.6792 28.0951 18.5312C28.1637 18.1534 28.5378 17.9005 28.9307 17.9665L33.0749 18.6777L33.0745 18.6805C33.1764 18.6977 33.2757 18.7359 33.3659 18.7972L34.7744 19.7566C34.9531 19.8558 35.0866 20.0277 35.1247 20.2386L35.6517 23.0835L37.4824 19.9209C37.5651 19.75 37.7191 19.6117 37.9206 19.5506C38.3011 19.4351 38.707 19.6383 38.8271 20.0042L39.4831 21.9968H39.4821L40.0944 23.7903C40.1172 23.4078 40.1585 22.9104 40.2249 22.4131C40.2926 21.9069 40.3874 21.4017 40.5173 21.0142C40.6123 20.73 40.736 20.4887 40.8936 20.309C40.7858 19.6483 40.6387 18.9979 40.4515 18.3584C40.2256 17.5872 39.9411 16.835 39.5983 16.1032C39.2513 15.3658 38.861 14.6628 38.4271 13.9926C37.9886 13.3162 37.5117 12.6793 36.9945 12.0799C36.4717 11.477 35.9079 10.9127 35.305 10.3868C34.7064 9.86538 34.0615 9.37772 33.3708 8.9248C32.6869 8.47408 31.9749 8.06937 31.2373 7.71254ZM26.2438 32.4517L26.2402 32.4251L26.236 32.4223C26.2396 32.4289 26.2471 32.4727 26.2438 32.4517ZM15.6445 13.9003C15.6722 13.9745 15.7308 13.9679 15.8493 13.9016L15.6445 13.9003Z" fill="#A259FF"/>
</g>
<g clip-path="url(#clip1_181_33)">
<path d="M44.8999 43.6934C44.6628 43.7759 44.401 43.7892 44.1657 43.7427C43.9074 43.6908 43.6792 43.5684 43.5376 43.3875L40.9051 39.9754L38.4017 42.0878C38.0532 42.3818 37.6569 42.604 37.2747 42.7197C36.9811 42.8088 36.6891 42.8368 36.4185 42.7942C36.1195 42.7463 35.8629 42.6173 35.6754 42.3938C35.5268 42.2169 35.4277 41.9801 35.3976 41.6768L34.0018 28.0097C34 27.9991 34 27.9885 34 27.9792C33.9982 27.894 34.0195 27.8102 34.0655 27.7344C34.1168 27.6466 34.1999 27.5668 34.3078 27.5082C34.3538 27.4816 34.4034 27.4643 34.4564 27.4537C34.5608 27.4271 34.6687 27.4178 34.7731 27.4271C34.874 27.4351 34.973 27.4577 35.0633 27.4963C35.0933 27.5069 35.1234 27.5202 35.15 27.5362L50.1667 35.2663C50.4993 35.4379 50.7222 35.6201 50.8532 35.805C51.0177 36.0378 51.0372 36.2693 50.9416 36.4888C50.8567 36.687 50.6762 36.8626 50.4286 37.0089C50.1066 37.1991 49.6519 37.3468 49.1371 37.4266C49.1317 37.4279 49.1247 37.4279 49.1194 37.4293L45.4519 38L48.0649 41.4227C48.2029 41.6036 48.2295 41.8138 48.1605 42.0067C48.0932 42.1942 47.9358 42.3672 47.7023 42.4802C47.6934 42.4856 47.6828 42.4896 47.6722 42.4935L44.9583 43.6722C44.9406 43.6801 44.9211 43.6868 44.8999 43.6934ZM44.4098 43.0509C44.4364 43.0562 44.4629 43.0562 44.4877 43.0496C44.4965 43.0456 44.5054 43.0416 44.516 43.0389L47.1945 41.8763C47.2193 41.863 47.2352 41.8431 47.244 41.8218C47.2493 41.8045 47.2493 41.7885 47.2423 41.7779L44.3019 37.9281H44.3037C44.2789 37.8962 44.2612 37.8603 44.2506 37.8217C44.1975 37.6288 44.3638 37.4399 44.6204 37.4L48.9301 36.7296C48.9354 36.7282 48.9407 36.7269 48.9478 36.7269C49.3193 36.6684 49.6342 36.5699 49.8447 36.4462C49.9473 36.385 50.0163 36.3252 50.0411 36.2666C50.057 36.2307 50.0499 36.1868 50.0146 36.1376C49.9544 36.0525 49.8323 35.9593 49.6342 35.8569L34.9872 28.3197L36.3477 41.6249C36.3654 41.8058 36.4131 41.9335 36.4804 42.0133C36.5193 42.0599 36.5671 42.0865 36.6166 42.0945C36.6962 42.1078 36.8006 42.0931 36.9209 42.0572C37.1668 41.9827 37.4375 41.8271 37.6905 41.6129L40.6309 39.132C40.6645 39.1041 40.7034 39.0801 40.7476 39.0602C40.9741 38.9617 41.266 39.0189 41.3969 39.1905L44.3603 43.0283C44.3709 43.0389 44.3868 43.0469 44.4098 43.0509ZM44.5142 43.0389C44.5761 43.0163 44.6469 43.003 44.7212 43.003L44.5142 43.0389Z" fill="#A259FF"/>
</g>
<defs>
<clipPath id="clip0_181_33">
<rect width="40" height="38.4615" fill="white" transform="translate(3 4.34619)"/>
</clipPath>
<clipPath id="clip1_181_33">
<rect width="17" height="16.3462" fill="white" transform="translate(34 27.4231)"/>
</clipPath>
</defs>
</svg>
