<svg width="40" height="39" viewBox="0 0 40 39" fill="none" xmlns="http://www.w3.org/2000/svg">
<g clip-path="url(#clip0_16_4)">
<path d="M38.554 19.5943C38.5286 19.9533 38.5182 20.2469 38.5182 20.3875C38.5182 20.7193 38.277 20.9963 37.9541 21.0658L37.0042 21.3462C36.9336 21.3669 36.8623 21.3772 36.7923 21.3772V21.3791H36.6413C36.3047 21.3791 36.0215 21.1575 35.9414 20.8576L35.1094 18.4203L35.1074 18.4143L35.1064 18.4146L34.9554 17.9554L33.5462 20.3897C33.4854 20.4945 33.401 20.5784 33.3024 20.6382L33.3034 20.6395L32.569 21.0874C32.2321 21.2927 31.7858 21.1969 31.5719 20.8729C31.5179 20.7909 31.484 20.7024 31.4691 20.6125L30.7549 16.756L29.6738 16.0195L27.137 15.5841C27.224 15.7165 27.3122 15.8474 27.3994 15.9766C27.8512 16.6471 28.2734 17.2734 28.4134 17.9188C28.639 18.9564 28.2363 19.8241 26.4398 20.4438C26.4915 20.4739 26.5426 20.5067 26.5934 20.544C27.2933 21.0589 27.4619 21.8182 25.9355 23.7354C25.5501 24.2196 25.2188 24.6475 24.9404 25.0193C24.7217 25.312 24.5176 25.5937 24.3298 25.8644L24.6732 28.267C24.7194 28.5907 24.6387 28.9056 24.4219 29.2089C24.2611 29.4339 24.0234 29.6477 23.7051 29.8483C23.4948 29.981 23.3151 30.1144 23.168 30.248C23.1097 30.3006 23.057 30.3532 23.0091 30.4052L23.167 31.0916C23.2425 31.4205 23.0615 31.7464 22.752 31.8756L22.7523 31.8763L22.4876 31.9871C22.4352 32.1843 22.3597 32.3777 22.2627 32.5674C22.1058 32.8722 21.8883 33.1702 21.6113 33.4607C21.3164 33.7709 20.9915 34.0056 20.6374 34.1646C20.2676 34.3308 19.8779 34.4138 19.4674 34.4138H18.1953C17.7962 34.4138 17.4723 34.1027 17.4723 33.7186C17.4723 33.4047 17.4326 33.0716 17.3542 32.7186C17.2728 32.3533 17.1488 31.962 16.9827 31.5445C16.7956 31.0737 16.6527 30.6477 16.5544 30.2665C16.4495 29.8602 16.3971 29.5084 16.3971 29.2104C16.3971 28.9444 16.4209 28.7062 16.4684 28.4955C16.5247 28.2442 16.6156 28.0307 16.7406 27.8545C16.7536 27.836 16.7682 27.7834 16.7848 27.6961C16.8102 27.5618 16.8232 27.3775 16.8232 27.1418C16.8232 26.9624 16.791 26.7737 16.7275 26.5759C16.6569 26.3568 16.5479 26.123 16.4014 25.876C16.2184 25.5677 16.0804 25.3188 15.9876 25.1301C15.8542 24.8594 15.7874 24.6421 15.7874 24.4809C15.7874 23.3463 15.3828 23.0962 14.821 23.0962C14.4834 23.0962 14.1035 23.1457 13.7087 23.1973C13.2168 23.2615 12.7048 23.3281 12.2018 23.3281C11.8226 23.3281 11.4482 23.1616 11.083 22.8311C10.8138 22.5876 10.5322 22.2345 10.2422 21.7747C9.97917 21.3581 9.7806 21.0216 9.64583 20.7681C9.46029 20.4188 9.36784 20.1512 9.36784 19.9721C9.36784 19.5142 9.36751 19.4751 9.36719 19.4385C9.34798 17.5097 9.3304 15.6859 11.265 14.3418C12.0671 13.2454 12.7894 12.5342 13.6582 12.0816C14.5628 11.6102 15.5693 11.4453 16.9303 11.4453C17.3294 11.4453 17.6533 11.7567 17.6533 12.1405V13.1261L18.5205 13.4911L18.5329 13.4344C18.6156 13.0598 18.9987 12.8203 19.3883 12.8995L19.3913 12.9001V12.8995C19.6595 12.9552 19.9036 13.0213 20.1257 13.0989C20.3633 13.1821 20.5687 13.277 20.7435 13.3853C20.835 13.4423 20.9993 13.4926 21.1966 13.5258C21.4173 13.5628 21.654 13.5703 21.8538 13.5321C21.96 13.5117 22.0394 13.4876 22.0625 13.4613L22.0628 13.4595C22.0625 13.4595 22.0622 13.4595 22.0625 13.4588L22.0671 13.4366C22.0853 13.333 22.1009 13.2282 22.1143 13.1224L21.2559 13.1959C20.9473 13.2216 20.6673 13.0563 20.5426 12.8018L20.5413 12.8022C20.2581 12.2294 19.6598 11.9355 18.9089 11.567C18.1016 11.1708 17.151 10.7041 16.1273 9.76697C12.6725 10.9454 11.5687 11.1076 11.292 10.3667C11.1292 9.93223 11.363 9.58448 11.6777 9.11623C11.9616 8.69399 12.3656 8.09365 12.3656 7.52962C12.3656 7.22757 12.5664 6.97028 12.8467 6.8745L15.7549 5.59714H15.7542C15.4408 5.54392 15.0524 5.47757 14.7305 3.97296C14.6647 3.66403 14.8242 3.36104 15.1006 3.22144L15.1003 3.22081C15.3271 3.10594 15.5934 2.94913 15.8991 2.75006C16.209 2.54817 16.5798 2.289 17.012 1.97162L17.0394 1.95159C15.5609 2.17288 14.1393 2.56319 12.7764 3.12316L12.7767 3.1241C11.6393 3.59454 10.5791 4.14543 9.59766 4.77832C8.61458 5.41278 7.70378 6.133 6.86589 6.94148L6.86296 6.9443C6.02214 7.74997 5.27311 8.62576 4.61361 9.57103C3.95508 10.5144 3.38216 11.5339 2.8929 12.6278C2.8877 12.6391 2.88249 12.65 2.87695 12.661C2.40234 13.7302 2.04688 14.8389 1.80762 15.987C1.56641 17.146 1.44596 18.3429 1.44596 19.5771C1.44596 20.8113 1.56673 22.0085 1.80794 23.1676C1.82096 23.2299 1.83431 23.2925 1.84831 23.3554L5.19173 24.8925C5.44173 25.0077 5.59147 25.2434 5.60059 25.4926C5.63639 26.4115 5.38184 27.0911 5.12012 27.7881C4.92546 28.3065 4.72656 28.8367 4.69466 29.4608C4.69141 29.5269 4.67871 29.5901 4.65788 29.6499C5.30599 30.5695 6.03939 31.423 6.86003 32.2096L6.86296 32.2124C7.70052 33.0209 8.61165 33.7411 9.59473 34.3753C10.5758 35.0082 11.6361 35.5594 12.7738 36.0298C12.7855 36.0345 12.7969 36.0395 12.8083 36.0452C13.9196 36.4987 15.0729 36.8405 16.2669 37.0702C17.4723 37.3022 18.7171 37.418 20.0007 37.418C21.2839 37.418 22.529 37.3022 23.7341 37.0702C24.9408 36.838 26.1055 36.4912 27.2275 36.0308L27.2269 36.0298C28.3646 35.5594 29.4248 35.0082 30.4062 34.3753C31.389 33.7411 32.2998 33.0206 33.138 32.2121L33.1409 32.2096C33.9814 31.4043 34.7308 30.5282 35.39 29.5829C36.0485 28.6395 36.6214 27.62 37.1107 26.5261C37.1159 26.5148 37.1208 26.5039 37.1266 26.4929C37.5986 25.4243 37.9541 24.3157 38.193 23.1679C38.4323 22.0138 38.5531 20.8226 38.554 19.5943ZM12.2061 1.84892C14.6439 0.846997 17.2445 0.346191 20 0.346191C21.377 0.346191 22.7161 0.47108 24.0156 0.721169C25.2992 0.968442 26.5469 1.33935 27.7575 1.8339C27.7705 1.83859 27.7839 1.8436 27.7969 1.84892C29.0046 2.34847 30.1419 2.94068 31.2074 3.62834C32.2702 4.31382 33.2536 5.09132 34.1566 5.96241L34.1595 5.96523C35.0654 6.8335 35.874 7.77908 36.5869 8.80104C37.3014 9.82518 37.918 10.9191 38.4375 12.0804L38.4362 12.0807L38.4375 12.0829C38.9596 13.2579 39.3506 14.4692 39.6104 15.7156C39.8704 16.9651 40.0003 18.2528 40.0003 19.5771C40.0003 20.9014 39.8704 22.1891 39.6104 23.4386C39.3535 24.6731 38.9671 25.8729 38.4528 27.0369C38.4479 27.0494 38.443 27.0617 38.4375 27.0742C37.918 28.2354 37.3018 29.329 36.5869 30.3535C35.874 31.3755 35.0654 32.321 34.1595 33.1893L34.1566 33.1921C33.2539 34.0632 32.2702 34.8407 31.2074 35.5262C30.1423 36.2136 29.0046 36.8061 27.7969 37.3056L27.7966 37.3047L27.7939 37.3056C26.5719 37.8077 25.3122 38.1839 24.016 38.4334C22.7161 38.6835 21.3773 38.8084 20 38.8084C18.6227 38.8084 17.2835 38.6835 15.984 38.4334C14.7005 38.1864 13.4531 37.8155 12.2425 37.3206C12.2292 37.316 12.2161 37.3113 12.2031 37.3056C10.9954 36.8061 9.85807 36.2139 8.79232 35.5262C7.72982 34.8407 6.74609 34.0632 5.8431 33.1921L5.84017 33.1893C4.93457 32.3214 4.12598 31.3755 3.41309 30.3535C2.69824 29.3294 2.08203 28.2354 1.5625 27.0742L1.56348 27.0735L1.5625 27.0714C1.04036 25.8963 0.649089 24.6853 0.389648 23.4386C0.130208 22.1888 0 20.9014 0 19.5768C0 18.2525 0.130208 16.9648 0.390299 15.7153C0.647135 14.4811 1.0332 13.2814 1.54785 12.117C1.55273 12.1045 1.55762 12.0923 1.56315 12.0797C2.08268 10.9185 2.69857 9.82456 3.41374 8.80041C4.12663 7.77877 4.93522 6.83287 5.84082 5.9646L5.84375 5.96178C6.74674 5.0907 7.73047 4.3132 8.79297 3.62772C9.8584 2.94036 10.9961 2.34785 12.2038 1.84829L12.2041 1.84923L12.2061 1.84892ZM3.15137 26.5461C3.30859 26.8961 3.48047 27.2426 3.66667 27.5837C3.69922 27.4955 3.73177 27.4075 3.76465 27.3205C3.93294 26.8726 4.09766 26.4335 4.14746 25.9467L2.63021 25.2494C2.7819 25.6822 2.9554 26.1142 3.15137 26.5436L3.15039 26.5439L3.15137 26.5461ZM28.2373 3.71254C27.5667 3.38827 26.8688 3.10156 26.1436 2.85366C23.459 3.44805 22.6826 3.09154 21.8216 2.69559C21.3838 2.49433 20.9167 2.2793 19.8861 2.2793H19.2695C19.2074 2.2793 19.0775 2.33001 18.8796 2.43173C18.6152 2.56789 18.2835 2.78167 17.8841 3.07464C17.457 3.38796 17.0638 3.66152 16.7035 3.89628C16.4935 4.03306 16.3014 4.15169 16.127 4.2531C16.4714 4.32947 16.7344 4.53668 16.9176 6.08573H16.9163C16.9495 6.37464 16.7897 6.66416 16.4997 6.79156L13.7673 7.99161C13.6341 8.75409 13.2025 9.39637 12.8831 9.8712C12.8766 9.88121 12.8691 9.88872 12.8613 9.89404C13.2077 9.69497 14.0417 9.02264 16.0254 8.33153C16.2949 8.21916 16.6201 8.27331 16.8343 8.48991C17.8079 9.46899 18.7633 9.93755 19.5612 10.3294C20.3975 10.7398 21.0911 11.0803 21.5859 11.778L22.7529 11.6779C22.7949 11.6707 22.8385 11.6666 22.8828 11.6666C23.2819 11.6666 23.6058 11.9777 23.6058 12.3615C23.6058 12.5777 23.5954 12.8003 23.5749 13.0266C23.5553 13.235 23.5264 13.451 23.4867 13.6729C23.4854 13.6811 23.4841 13.6895 23.4824 13.6977C23.4482 13.8873 23.377 14.0567 23.2764 14.2069C23.0195 14.591 22.6025 14.8051 22.1331 14.8949C21.7523 14.9678 21.3268 14.9581 20.9456 14.8943C20.5684 14.831 20.2126 14.708 19.9616 14.5528C19.9089 14.5202 19.848 14.4889 19.779 14.4592L19.7454 14.611H19.7448C19.7347 14.6558 19.7201 14.7005 19.7002 14.744C19.541 15.0949 19.1165 15.2552 18.7513 15.1024L16.6904 14.2348C16.4079 14.1406 16.2048 13.882 16.2048 13.5781V12.8569C15.4453 12.9039 14.8516 13.0372 14.3389 13.3045C13.6709 13.6523 13.0827 14.2523 12.3916 15.2079C12.3405 15.2871 12.2715 15.3575 12.1865 15.4132C10.7744 16.3454 10.7891 17.8431 10.8044 19.4288C10.8076 19.7496 10.8109 19.8763 10.8109 19.9734C10.8109 20.0059 10.849 19.9956 10.9255 20.1393C11.0462 20.3668 11.2279 20.6739 11.471 21.0589C11.6891 21.4044 11.8896 21.6595 12.0693 21.822C12.1549 21.8996 12.1989 21.9387 12.1999 21.9387C12.6357 21.9387 13.0843 21.8802 13.515 21.8242C13.9733 21.7647 14.4144 21.7071 14.819 21.7071C16.222 21.7071 17.2311 22.2076 17.2311 24.4816C17.2311 24.5235 17.251 24.459 17.2904 24.5392C17.3704 24.7019 17.4915 24.9198 17.6533 25.1927C17.8506 25.5254 18.0013 25.8513 18.1038 26.1696C18.2126 26.5067 18.2676 26.8316 18.2676 27.1424C18.2676 27.446 18.2448 27.714 18.2008 27.9462C18.1468 28.2292 18.0563 28.4595 17.9303 28.6367C17.9118 28.663 17.8945 28.7118 17.8783 28.7835C17.8535 28.894 17.8411 29.0364 17.8411 29.2107C17.8411 29.4045 17.8786 29.6461 17.9531 29.9353C18.0345 30.2499 18.1602 30.6214 18.3307 31.0506C18.5208 31.5291 18.666 31.9893 18.7643 32.4309C18.8092 32.6331 18.8447 32.8309 18.8695 33.0237H19.4658C19.6709 33.0237 19.8577 32.9862 20.0257 32.9107C20.209 32.8281 20.3835 32.7004 20.5482 32.527C20.7282 32.3376 20.8682 32.1464 20.9674 31.9536C21.0544 31.7855 21.1077 31.6187 21.1266 31.4534C21.1445 31.2033 21.3027 30.9711 21.5579 30.864L21.6312 30.833L21.5299 30.3936C21.4902 30.2208 21.5192 30.0336 21.626 29.8724C21.7738 29.6493 21.9583 29.4373 22.1781 29.238C22.3916 29.0436 22.6374 28.8595 22.9131 28.6858C23.0752 28.5838 23.181 28.4958 23.2344 28.421C23.2347 28.4207 23.235 28.421 23.2354 28.4216L23.2396 28.4245L22.8688 25.8322C22.8337 25.6603 22.8652 25.476 22.9727 25.3179C23.1813 25.0115 23.4469 24.6418 23.7699 24.2099C24.083 23.7917 24.4229 23.3523 24.7878 22.8937C25.5895 21.8861 25.7406 21.6633 25.7168 21.6461C25.6673 21.6094 25.5472 21.5619 25.4212 21.5124C24.9287 21.3187 24.3864 21.1046 24.1309 20.4053C24.1169 20.3706 24.1058 20.334 24.0973 20.2964C24.0163 19.9217 24.2666 19.5543 24.6566 19.4766C26.6169 19.0826 27.1012 18.6644 27.0003 18.2008C26.915 17.8077 26.5645 17.2878 26.1895 16.7313C25.8158 16.177 25.4209 15.5907 25.1553 14.9503C25.0924 14.8245 25.0684 14.6792 25.0951 14.5312C25.1637 14.1534 25.5378 13.9005 25.9307 13.9665L30.0749 14.6777L30.0745 14.6805C30.1764 14.6977 30.2757 14.7359 30.3659 14.7972L31.7744 15.7566C31.9531 15.8558 32.0866 16.0277 32.1247 16.2386L32.6517 19.0835L34.4824 15.9209C34.5651 15.75 34.7191 15.6117 34.9206 15.5506C35.3011 15.4351 35.707 15.6383 35.8271 16.0042L36.4831 17.9968H36.4821L37.0944 19.7903C37.1172 19.4078 37.1585 18.9104 37.2249 18.4131C37.2926 17.9069 37.3874 17.4017 37.5173 17.0142C37.6123 16.73 37.736 16.4887 37.8936 16.309C37.7858 15.6483 37.6387 14.9979 37.4515 14.3584C37.2256 13.5872 36.9411 12.835 36.5983 12.1032C36.2513 11.3658 35.861 10.6628 35.4271 9.99264C34.9886 9.31624 34.5117 8.67928 33.9945 8.07988C33.4717 7.47703 32.9079 6.91269 32.305 6.38684C31.7064 5.86538 31.0615 5.37772 30.3708 4.9248C29.6869 4.47408 28.9749 4.06937 28.2373 3.71254ZM23.2438 28.4517L23.2402 28.4251L23.236 28.4223C23.2396 28.4289 23.2471 28.4727 23.2438 28.4517ZM12.6445 9.9003C12.6722 9.97449 12.7308 9.96791 12.8493 9.90156L12.6445 9.9003Z" fill="#A259FF"/>
</g>
<defs>
<clipPath id="clip0_16_4">
<rect width="40" height="38.4615" fill="white" transform="translate(0 0.346191)"/>
</clipPath>
</defs>
</svg>
